<svg xmlns="http://www.w3.org/2000/svg" viewBox="0 0 256 256" role="img" aria-labelledby="title desc">
  <title id="title">MilyVoiceTraductor</title>
  <desc id="desc">Zebra estilizada con audífonos verde esmeralda y azul zafiro.</desc>
  <defs>
    <linearGradient id="ring" x1="0" y1="0" x2="1" y2="1">
      <stop offset="0" stop-color="#00a878"/>
      <stop offset="1" stop-color="#1769e0"/>
    </linearGradient>
  </defs>
  <circle cx="128" cy="128" r="111" fill="#f7f4ea" stroke="url(#ring)" stroke-width="10"/>
  <path d="M72 86 51 34l43 25M184 86l21-52-43 25" fill="#fff" stroke="#10243e" stroke-width="10" stroke-linejoin="round"/>
  <path d="M78 82c7-34 30-52 50-52s43 18 50 52v78c0 42-23 69-50 69s-50-27-50-69Z" fill="#fff" stroke="#10243e" stroke-width="9"/>
  <path d="M104 45c15 14 15 30 2 45M130 36c12 16 11 34-3 51M154 44c8 16 5 32-8 45M88 102c14 7 22 18 24 35M168 102c-14 7-22 18-24 35M90 151c14-3 27 0 38 10M166 151c-14-3-27 0-38 10" fill="none" stroke="#10243e" stroke-width="10" stroke-linecap="round"/>
  <ellipse cx="105" cy="116" rx="9" ry="12" fill="#10243e"/>
  <ellipse cx="151" cy="116" rx="9" ry="12" fill="#10243e"/>
  <ellipse cx="128" cy="183" rx="31" ry="24" fill="#10243e"/>
  <ellipse cx="118" cy="180" rx="5" ry="7" fill="#f7f4ea"/>
  <ellipse cx="138" cy="180" rx="5" ry="7" fill="#f7f4ea"/>
  <path d="M65 127V97c0-38 28-68 63-68s63 30 63 68v30" fill="none" stroke="#00a878" stroke-width="13" stroke-linecap="round"/>
  <rect x="49" y="108" width="30" height="55" rx="15" fill="#1769e0" stroke="#10243e" stroke-width="6"/>
  <rect x="177" y="108" width="30" height="55" rx="15" fill="#1769e0" stroke="#10243e" stroke-width="6"/>
  <path d="M58 135h5m5-9v18m124-9h5m-14-9v18" stroke="#fff" stroke-width="4" stroke-linecap="round"/>
</svg>
